<svg height="16" viewBox="0 0 101 16" width="101" xmlns="http://www.w3.org/2000/svg"><path d="m229.434343 13139.0879c-.042432.0444-.114238.0444-.159934 0l-5.174983-5.2236c-.044064-.0445-.027744-.0807.032639-.0807h10.45115c.062015 0 .076703.0362.034271.0807zm-28.185792 0c-.044064.0444-.11587.0444-.159934 0l-5.174983-5.2236c-.042432-.0445-.027744-.0807.034271-.0807h10.449518c.062015 0 .076703.0362.032639.0807zm51.06441-5.3043h10.449518c.062015 0 .076703.0362.03264.0807l-5.176616 5.2236c-.045696.0444-.11587.0444-.159934 0l-5.179879-5.2236c-.042432-.0445-.029376-.0807.034271-.0807zm-3.923261-.0806-1.161964-1.1689c-.044064-.0444-.130558-.0807-.192573-.0807l-9.057446-.0033c-.062015 0-.076703-.0362-.032639-.0806l5.418147-5.4557c.045696-.0445.114239-.0445.159934 0l13.93541 14.0541c.044064.0428.114238.0428.159934 0l8.357329-8.4338c.042432-.0444.027744-.0807-.034271-.0807h-14.947234c-.062014 0-.148509-.0362-.19094-.0806l-7.280228-7.3407c-.045695-.0428-.114238-.0428-.159934 0l-7.280228 7.3407c-.042431.0444-.128925.0806-.19094.0806l-13.085153-.0033c-.062015 0-.146878-.0362-.190941-.0806l-7.276964-7.3374c-.044064-.0428-.114238-.0428-.158302 0l-7.280228 7.3407c-.044063.0444-.128925.0806-.19094.0806h-13.086785c-.062015 0-.146878-.0362-.190941-.0806l-7.275332-7.3407c-.044064-.0428-.11587-.0428-.158302 0l-13.928882 14.0558c-.042432.0444-.114238.0444-.158302 0l-6.950569-7.0065c-.042432-.0445-.114238-.0445-.158302 0l-.770291.782c-.042431.0444-.042431.1152 0 .1596l7.880794 7.9449c.044063.0428.114238.0428.158302 0l13.92725-14.0541c.042432-.0445.114238-.0445.158302 0l13.932146 14.0541c.044064.0428.11587.0428.159934 0l7.040328-7.1036c.044063-.0445.130558-.0807.192572-.0807h11.694713c.062015 0 .076703-.0362.03264-.0806l-1.161964-1.1689c-.045696-.0444-.130558-.0807-.190941-.0807h-9.054182c-.062015 0-.076703-.0362-.032639-.0806l5.411619-5.459c.044064-.0445.114238-.0445.158302 0l13.93541 14.0541c.045696.0428.117502.0428.159934 0l7.040328-7.1036c.044063-.0445.130558-.0807.192572-.0807h11.691449c.060383 0 .076703-.0362.031008-.0806z" fill="#1e2129" fill-rule="evenodd" transform="translate(-165 -13125)"/></svg>