<?xml version="1.0" encoding="UTF-8"?>
<svg width="186px" height="46px" viewBox="0 0 186 46" version="1.1" xmlns="http://www.w3.org/2000/svg" xmlns:xlink="http://www.w3.org/1999/xlink">
    <!-- Generator: sketchtool 48.2 (47327) - http://www.bohemiancoding.com/sketch -->
    <title>7FE48905-A280-457F-8D97-4E549BB5B6CA</title>
    <desc>Created with sketchtool.</desc>
    <defs></defs>
    <g id="Desktop---Header" stroke="none" stroke-width="1" fill="none" fill-rule="evenodd" transform="translate(-627.000000, -38.000000)">
        <path d="M751.103165,79.610918 C750.543221,80.4757855 749.600157,80.7815137 748.627622,80.8648941 C747.314535,80.9204811 745.813164,80.8943225 744.665442,80.8943225 L744.665442,74.8778528 L747.147535,74.8778528 C748.797897,74.9628682 750.774075,75.3241833 751.250519,76.6648097 C751.60908,77.7242316 751.659835,78.7787487 751.103165,79.610918 Z M744.665442,67.8134057 C745.420221,67.8951512 748.876486,67.2836948 749.405322,69.3436817 C749.600157,70.0679469 749.513382,70.7889423 749.043487,71.3709704 C748.37712,72.2113142 747.375114,72.2374728 746.427138,72.2914248 C746.148803,72.3208532 744.863551,72.2914248 744.665442,72.2914248 L744.665442,67.8134057 Z M750.96891,73.1007054 C750.798634,73.0434836 750.828105,72.9895315 750.99838,72.8799925 C751.550138,72.5137726 751.997112,71.8189358 752.244338,71.2369077 C752.837028,69.9551381 752.496477,68.3382119 751.777718,67.224838 C750.323827,65.056947 747.872843,65.1697558 745.420221,65.1991842 C744.251214,65.1697558 742.135868,65.1991842 742.135868,65.1991842 L742.045819,65.3070883 L742.045819,83.5641309 L744.251214,83.5641309 C744.251214,83.5641309 747.096779,83.5363375 748.460621,83.5363375 C749.960355,83.5363375 751.383137,83.2273394 752.583252,82.2839962 C754.225428,81.0267503 755.011315,79.082842 754.52996,76.9721729 C754.143565,75.2963899 752.694586,73.5437661 750.96891,73.1007054 Z M772.466027,80.976068 L763.207297,80.976068 L763.207297,75.02009 C763.207297,74.9089161 763.292435,74.8794878 763.292435,74.8794878 L769.646658,74.8794878 C769.731795,74.8794878 769.780913,74.8549641 769.780913,74.7699488 L769.780913,72.3470118 C769.780913,72.2914248 769.780913,72.2652663 769.69905,72.2652663 L763.207297,72.2652663 L763.207297,67.8657228 L763.428328,67.8411992 L771.984671,67.8411992 C772.074721,67.8411992 772.100917,67.8134057 772.100917,67.7283904 L772.100917,65.3087232 C772.100917,65.2498664 772.074721,65.2269777 771.984671,65.2269777 C771.540973,65.2253428 761.845093,65.2269777 760.70392,65.2253428 C760.617145,65.2253428 760.592586,65.3087232 760.592586,65.3087232 L760.592586,83.4774807 C760.592586,83.4774807 760.643341,83.5641309 760.728479,83.5886546 L772.436556,83.5886546 C772.516782,83.5886546 772.54789,83.5641309 772.54789,83.4774807 L772.54789,81.0594485 C772.54789,81.0038615 772.54789,80.976068 772.466027,80.976068 M781.571673,73.0761818 L781.571673,67.8689926 L781.683007,67.7872471 C783.521655,67.7872471 786.643918,67.6172165 787.228421,69.9551381 C787.423256,70.7905772 787.11545,71.6276513 786.589888,72.1802509 C785.442166,73.4342271 783.105789,73.0434836 781.571673,73.0761818 Z M787.06142,75.0724072 C787.840758,74.7437902 788.620096,74.438062 789.237344,73.6565749 C790.236076,72.3993289 790.547156,70.6221815 790.070712,69.0395884 C789.013039,65.4198971 785.669745,65.1697558 782.436148,65.1991842 C781.403034,65.1991842 780.040831,65.2269777 779.146884,65.1991842 L778.945501,65.2269777 L778.945501,83.3957352 L779.009354,83.5641309 L781.489809,83.5641309 L781.571673,83.454592 L781.571673,75.7443553 L784.078324,75.7443553 C786.029944,78.4141637 789.879152,83.5641309 789.879152,83.5641309 L792.803306,83.5641309 C792.888444,83.4774807 793.055445,83.6475114 793.055445,83.454592 C791.020325,80.7242919 789.152207,77.8893575 787.063057,75.1901207 L787.06142,75.0724072 Z M812.642857,73.3219088 L812.58719,73.2385283 L806.399968,73.2385283 L806.401605,75.7154174 L806.431076,75.7726392 L809.852959,75.7726392 L809.964293,75.8789084 L809.962655,80.3356737 C808.299195,81.2822867 806.262438,81.7564107 804.143818,81.2544933 C801.719029,80.6659256 799.21074,78.2740519 798.89966,75.7726392 C798.544374,72.9638634 799.376104,70.2041349 801.800893,68.5659549 C804.950989,66.3915243 809.381427,67.6455004 812.248276,69.5142028 L812.249914,66.3637308 C810.800935,65.5544502 809.212788,65.0018506 807.542779,64.8383595 C806.067603,64.6977572 804.168377,64.6977572 802.68829,65.1424528 C799.737939,65.9762571 797.151062,68.6754939 796.338979,71.6559352 C795.472866,74.7704392 796.090114,78.0794976 798.008988,80.5024345 C800.661357,83.8147627 804.924793,84.6207734 809.017954,83.5613516 C810.411266,83.2278299 811.501684,82.7324521 812.642857,81.7825693 C812.615024,78.999952 812.642857,73.6848588 812.642857,73.3219088 M636.055709,79.610918 C635.499039,80.4725157 634.551063,80.7815137 633.571979,80.8648941 C632.262168,80.9204811 630.759159,80.8926876 629.619623,80.8943225 L629.619623,74.8778528 L632.091892,74.8778528 C633.743892,74.9628682 635.72007,75.3241833 636.194877,76.6648097 C636.556712,77.7242316 636.612379,78.7787487 636.055709,79.610918 Z M629.619623,67.8117708 C630.372765,67.8951512 633.824118,67.2836948 634.359503,69.3436817 C634.551063,70.0679469 634.462651,70.7889423 633.992756,71.3709704 C633.324752,72.2113142 632.322746,72.234203 631.37477,72.2914248 C631.096435,72.3192183 629.81282,72.288155 629.619623,72.2914248 L629.619623,67.8117708 Z M635.916542,73.1023403 C635.749541,73.0434836 635.779012,72.9895315 635.946012,72.8799925 C636.502682,72.5137726 636.944744,71.8189358 637.19852,71.2369077 C637.783023,69.9551381 637.444109,68.3382119 636.723713,67.224838 C635.27146,65.056947 632.818838,65.1697558 630.372765,65.1991842 C629.200483,65.1697558 627.0835,65.1991842 627.0835,65.1991842 L627,65.3070883 L627,83.5641309 L629.200483,83.5608611 C629.200483,83.5608611 632.041137,83.5363375 633.408253,83.5363375 C634.911261,83.5363375 636.332407,83.2273394 637.534159,82.2839962 C639.176335,81.0267503 639.958947,79.082842 639.484141,76.9721729 C639.092835,75.2980248 637.645493,73.5437661 635.916542,73.1023403 Z M657.407437,80.976068 L648.160168,80.976068 L648.160168,75.02009 C648.158531,74.9089161 648.240394,74.8794878 648.240394,74.8794878 L654.596255,74.8794878 C654.678118,74.8794878 654.737059,74.8533292 654.737059,74.7699488 L654.737059,72.3470118 C654.737059,72.2914248 654.737059,72.2652663 654.655196,72.2652663 L648.158531,72.2652663 L648.158531,67.8689926 L648.377925,67.8411992 L656.935905,67.8411992 C657.019406,67.8411992 657.048877,67.8117708 657.048877,67.7283904 L657.050514,65.3087232 C657.048877,65.2498664 657.019406,65.2269777 656.935905,65.2269777 C656.488932,65.2253428 646.793053,65.2269777 645.648605,65.2269777 C645.566742,65.2269777 645.54382,65.3087232 645.54382,65.3087232 L645.54382,83.4774807 C645.54382,83.4774807 645.596212,83.5641309 645.68135,83.5886546 L657.381241,83.5886546 C657.466379,83.5886546 657.497487,83.5641309 657.497487,83.4774807 L657.497487,81.0594485 C657.497487,81.0038615 657.497487,80.976068 657.407437,80.976068 M666.521106,73.0761818 C666.521106,72.9061511 666.522743,67.8689926 666.522743,67.8689926 L666.630803,67.7905169 C668.46945,67.7905169 671.593351,67.6172165 672.172942,69.9551381 C672.372689,70.7905772 672.06652,71.6276513 671.536047,72.1835208 C670.394873,73.4342271 668.053585,73.0434836 666.521106,73.0761818 Z M672.010853,75.0724072 C672.790191,74.7437902 673.574441,74.438062 674.183503,73.6565749 C675.185509,72.3993289 675.496589,70.6205466 675.020145,69.0395884 C673.962472,65.4198971 670.617541,65.1697558 667.383944,65.1991842 C666.355742,65.1991842 664.986989,65.2269777 664.093043,65.1991842 L663.901483,65.2253428 L663.901483,83.3957352 L663.95715,83.5641309 L666.435968,83.5608611 L666.521106,83.454592 L666.521106,75.7443553 L669.027758,75.7443553 C670.977739,78.4141637 674.823673,83.5641309 674.823673,83.5641309 L677.751102,83.5641309 C677.837877,83.4774807 678.003241,83.6475114 678.003241,83.454592 C675.966484,80.7242919 674.100003,77.8893575 672.010853,75.1901207 L672.010853,75.0724072 Z M697.535641,73.2390188 L691.351693,73.2373839 L691.351693,75.7159078 L691.37789,75.7731297 L694.806321,75.7714948 L694.912743,75.8793989 L694.912743,80.3361642 C693.247646,81.2827772 691.207614,81.7569012 689.090631,81.2549837 C686.665843,80.666416 684.157554,78.2745424 683.85466,75.7714948 C683.487913,72.9643539 684.327829,70.2046254 686.749343,68.5664453 C689.901077,66.3920147 694.329877,67.6459909 697.204914,69.5146933 L697.203276,66.3625863 C695.75266,65.5533058 694.159602,65.002341 692.489592,64.8339453 C691.014417,64.6966128 689.121739,64.6966128 687.646564,65.1429433 C684.691302,65.9767475 682.10115,68.6759843 681.290704,71.6564257 C680.424591,74.7709297 681.038565,78.079988 682.962351,80.5012901 C685.609807,83.8152532 689.873244,84.6212639 693.966405,83.563477 C695.361354,83.2266855 696.44686,82.7329426 697.592945,81.7830597 C697.565112,79.0020774 697.592945,73.6837144 697.592945,73.3223992 L697.535641,73.2390188 Z M719.142128,80.6199846 C718.603468,81.1660446 717.942013,81.4456143 717.172499,81.4456143 C716.720614,81.4439793 716.308023,81.3556942 715.947825,81.1872984 C715.212693,80.8390626 714.644562,80.3044469 714.3826,79.5393089 C713.583615,77.2651488 714.942544,75.7381426 717.233077,74.0411058 L720.707352,78.5959657 C720.707352,78.5959657 719.612022,80.1474955 719.142128,80.6199846 Z M724.104676,78.3049517 L724.070293,78.1872382 L724.119411,78.1038577 L724.163617,78.0237471 C724.748121,76.9970235 725.345722,76.0062679 725.923677,75.0710992 C726.478709,74.1964223 727.123791,73.4329192 727.849099,72.8018438 L726.241306,70.630683 C725.507811,71.1734732 724.861092,71.833977 724.314246,72.6007499 C723.678987,73.5032203 723.078111,74.456373 722.546,75.4340493 L722.437941,75.6351433 L722.382274,75.7381426 L722.274214,75.9228875 L722.141596,75.749587 L722.069556,75.6678415 L721.935301,75.4863664 L717.876522,70.2432093 C717.586726,69.903148 717.354235,69.5679914 717.188871,69.2393744 C717.013684,68.9025829 716.925272,68.5657914 716.925272,68.2306348 C716.925272,67.7368919 717.116832,67.3412436 717.483579,67.0534994 C717.82413,66.788644 718.251456,66.6513115 718.747547,66.6513115 C719.327138,66.6513115 719.846151,66.8360564 720.278389,67.2137206 C720.589469,67.4900204 720.874353,67.8219072 721.115031,68.2110159 L723.505437,66.878564 C723.331887,66.5940896 723.132141,66.3243294 722.917659,66.0839976 C722.626226,65.7553807 722.285675,65.4741761 721.915653,65.2469236 C721.530896,65.0131314 721.082286,64.8283866 720.574734,64.6975938 C720.063907,64.565166 719.446659,64.5014045 718.747547,64.5014045 C718.04516,64.5014045 717.398441,64.5978642 716.804114,64.7826091 C716.214699,64.965719 715.708784,65.2256698 715.289645,65.5542867 C714.875417,65.8714593 714.546327,66.2736472 714.308923,66.7494061 C714.063334,67.2169904 713.942176,67.7565108 713.940539,68.3483483 C713.940539,68.9892331 714.076432,69.5810706 714.359678,70.0944325 C714.660935,70.6421274 715.001486,71.1554892 715.37642,71.6247084 L715.641656,71.9533254 L715.273272,72.1707685 C713.847215,72.9669698 712.799365,73.9299319 712.152646,75.0334963 C711.502652,76.1370607 711.180111,77.2635139 711.180111,78.3817925 C711.180111,79.1060577 711.311092,79.8090691 711.56978,80.4728427 C711.820281,81.1317115 712.208313,81.7219141 712.691306,82.2205617 C713.190672,82.7192093 713.799734,83.126302 714.508669,83.4336651 C715.217605,83.7328537 716.037874,83.8865352 716.935095,83.8865352 C717.65058,83.8865352 718.271103,83.8244087 718.777018,83.6952508 C719.271471,83.5709976 719.71517,83.3797131 720.099927,83.1410162 C720.484684,82.9039542 720.836696,82.61621 721.144502,82.287593 C721.427749,81.9704204 721.742103,81.6123751 722.117037,81.1447908 L722.238194,81.0025536 L722.295499,80.9306175 L722.413382,80.7900153 L722.524716,80.9338874 L722.578745,81.0074583 L722.690079,81.1529653 L724.5451,83.5644579 L728.14217,83.5644579 L724.189814,78.4226652 L724.104676,78.3049517 Z M692.327994,46.7227366 L696.629088,46.7227366 C696.691304,46.7227366 696.706039,46.6867686 696.661833,46.6442609 L695.497738,45.4785699 C695.455169,45.4344273 695.368394,45.3984593 695.306178,45.3984593 L691.005085,45.4017291 C690.942869,45.4017291 690.92977,45.4376972 690.972339,45.4818397 L692.136434,46.6442609 C692.18064,46.6867686 692.265778,46.7227366 692.327994,46.7227366 M734.191698,51.9907444 C734.149129,52.034887 734.077089,52.034887 734.031246,51.9907444 L728.839481,46.8031742 C728.795275,46.7590316 728.811647,46.7230636 728.872226,46.7230636 L739.357267,46.7230636 C739.419483,46.7230636 739.434218,46.7590316 739.39165,46.8031742 L734.191698,51.9907444 Z M705.914505,51.9907444 C705.870299,52.034887 705.798259,52.034887 705.754053,51.9907444 L700.562288,46.8031742 C700.519719,46.7590316 700.534454,46.7230636 700.59667,46.7230636 L711.080074,46.7230636 C711.14229,46.7230636 711.157026,46.7590316 711.112819,46.8031742 L705.914505,51.9907444 Z M757.144507,46.7230636 L767.627911,46.7230636 C767.690127,46.7230636 767.704862,46.7590316 767.660656,46.8031742 L762.467253,51.9907444 C762.42141,52.034887 762.351008,52.034887 762.306802,51.9907444 L757.110124,46.8031742 C757.067556,46.7590316 757.080654,46.7230636 757.144507,46.7230636 Z M753.208523,46.642953 L752.042791,45.4821667 C751.998585,45.4380241 751.91181,45.4020561 751.849594,45.4020561 L742.762777,45.3987863 C742.700561,45.3987863 742.685825,45.3628183 742.730032,45.3186757 L748.165749,39.9005832 C748.211593,39.8564406 748.280358,39.8564406 748.326201,39.9005832 L762.306802,53.8578119 C762.351008,53.9003195 762.42141,53.9003195 762.467253,53.8578119 L770.851684,45.4821667 C770.894253,45.4380241 770.879518,45.4020561 770.817302,45.4020561 L755.821597,45.4020561 C755.759381,45.4020561 755.672606,45.3660881 755.630037,45.3219455 L748.326201,38.0318807 C748.280358,37.9893731 748.211593,37.9893731 748.165749,38.0318807 L740.861913,45.3219455 C740.819344,45.3660881 740.732569,45.4020561 740.670353,45.4020561 L727.542767,45.3987863 C727.480551,45.3987863 727.395414,45.3628183 727.351207,45.3186757 L720.050646,38.0318807 C720.006439,37.9893731 719.936037,37.9893731 719.891831,38.0318807 L712.587995,45.3219455 C712.543788,45.3660881 712.458651,45.4020561 712.396435,45.4020561 L699.267212,45.4020561 C699.204996,45.4020561 699.119858,45.3660881 699.075652,45.3219455 L691.776727,38.0318807 C691.732521,37.9893731 691.660482,37.9893731 691.617913,38.0318807 L677.643861,51.9907444 C677.601292,52.034887 677.529253,52.034887 677.485047,51.9907444 L670.511938,45.0325664 C670.469369,44.9884238 670.397329,44.9884238 670.353123,45.0325664 L669.580334,45.8091488 C669.537765,45.8532913 669.537765,45.9235925 669.580334,45.9677351 L677.486684,53.8578119 C677.53089,53.9003195 677.601292,53.9003195 677.645499,53.8578119 L691.617913,39.9005832 C691.660482,39.8564406 691.732521,39.8564406 691.776727,39.9005832 L705.754053,53.8578119 C705.798259,53.9003195 705.870299,53.9003195 705.914505,53.8578119 L712.977664,46.8031742 C713.02187,46.7590316 713.108645,46.7230636 713.170861,46.7230636 L724.903497,46.7230636 C724.965713,46.7230636 724.980449,46.6870956 724.936242,46.642953 L723.77051,45.4821667 C723.724667,45.4380241 723.639529,45.4020561 723.57895,45.4020561 L714.495408,45.4020561 C714.433192,45.4020561 714.418456,45.3660881 714.462662,45.3219455 L719.891831,39.9005832 C719.936037,39.8564406 720.006439,39.8564406 720.050646,39.9005832 L734.031246,53.8578119 C734.077089,53.9003195 734.149129,53.9003195 734.191698,53.8578119 L741.254856,46.8031742 C741.299062,46.7590316 741.385838,46.7230636 741.448054,46.7230636 L753.177415,46.7230636 C753.237994,46.7230636 753.254367,46.6870956 753.208523,46.642953 Z" id="logotype" fill="#1E2129"></path>
    </g>
</svg>