<?xml version="1.0" standalone="no"?>
<!DOCTYPE svg PUBLIC "-//W3C//DTD SVG 20010904//EN"
 "http://www.w3.org/TR/2001/REC-SVG-20010904/DTD/svg10.dtd">
<svg version="1.0" xmlns="http://www.w3.org/2000/svg"
 width="512.000000pt" height="512.000000pt" viewBox="0 0 512.000000 512.000000"
 preserveAspectRatio="xMidYMid meet">
<metadata>
Created by potrace 1.11, written by Peter Selinger 2001-2013
</metadata>
<g transform="translate(0.000000,512.000000) scale(0.100000,-0.100000)"
fill="#000000" stroke="none">
<path d="M2429 5076 c-2 -2 -47 -7 -99 -11 -52 -3 -97 -8 -100 -10 -3 -1 -27
-6 -54 -9 -27 -4 -52 -9 -56 -11 -3 -2 -25 -6 -50 -10 -25 -4 -48 -9 -52 -12
-5 -2 -21 -7 -36 -9 -87 -15 -320 -99 -458 -165 -123 -59 -308 -169 -394 -236
-382 -295 -640 -620 -813 -1024 -36 -84 -112 -306 -121 -352 -2 -12 -9 -42
-15 -67 -5 -25 -12 -58 -15 -75 -3 -16 -8 -39 -10 -50 -2 -11 -7 -43 -10 -70
-4 -28 -10 -64 -12 -80 -9 -53 -12 -459 -4 -510 4 -28 11 -75 14 -105 8 -66
10 -80 35 -195 72 -335 218 -654 432 -942 40 -53 88 -115 108 -138 47 -52 216
-222 261 -260 133 -116 351 -259 524 -344 90 -44 289 -125 336 -137 8 -2 58
-15 110 -29 227 -62 375 -80 645 -80 157 0 276 7 341 19 11 2 39 7 64 10 112
15 348 80 485 133 446 174 850 491 1127 883 54 77 127 197 178 295 20 39 47
86 58 105 12 19 22 41 22 49 0 7 18 63 40 123 38 103 102 340 115 426 3 21 7
47 9 58 21 109 29 483 12 624 -4 41 -9 86 -11 100 -2 14 -8 52 -15 85 -6 33
-13 71 -16 85 -2 14 -18 74 -35 135 -60 211 -127 371 -238 565 -47 84 -154
246 -170 260 -3 3 -19 23 -36 45 -116 156 -351 375 -545 507 -147 100 -344
205 -478 254 -37 14 -74 28 -82 31 -18 7 -15 6 -120 39 -127 39 -272 70 -374
80 -33 3 -65 9 -70 11 -10 7 -420 15 -427 9z"/>
</g>
</svg>
