<?xml version="1.0" encoding="utf-8"?>
<!-- Generator: Adobe Illustrator 19.1.1, SVG Export Plug-In . SVG Version: 6.00 Build 0)  -->
<svg version="1.1" xmlns="http://www.w3.org/2000/svg" xmlns:xlink="http://www.w3.org/1999/xlink" x="0px" y="0px" width="140px"
	 height="24px" viewBox="0 0 140 24" enable-background="new 0 0 140 24" xml:space="preserve">
<g id="Burger_Menu">
</g>
<g id="Reminder">
</g>
<g id="Phone">
</g>
<g id="Tool">
</g>
<g id="Document_Production">
</g>
<g id="Location">
</g>
<g id="Calendar">
</g>
<g id="Library">
</g>
<g id="Home">
</g>
<g id="Message">
</g>
<g id="Shopping_Cart">
</g>
<g id="Logout">
	<path opacity="0.65" fill-rule="evenodd" clip-rule="evenodd" fill="#FFFFFF" d="M128,1.7c5.7,0,10.4,4.6,10.4,10.3
		c0,5.7-4.6,10.3-10.4,10.3c-5.7,0-10.4-4.6-10.4-10.3C117.6,6.3,122.3,1.7,128,1.7z"/>
	<g>
		<g>
			<path fill-rule="evenodd" clip-rule="evenodd" fill="#0089D9" d="M16.7,2c-1.5-0.4-2,0.7-1.3,1.6C18.7,5,21,8.2,21,12
				c0,5-4,9-9,9c-5,0-9-4-9-9c0-3.7,2.3-7,5.6-8.3c0.8-0.9,0.2-2-1.1-1.7C3.6,3.7,1,7.6,1,12c0,6.1,4.9,11,11,11c6.1,0,11-4.9,11-11
				C23,7.6,20.4,3.8,16.7,2z M12,13c0.6,0,1-0.4,1-1V1c0-0.6-0.4-1-1-1c-0.6,0-1,0.4-1,1v11C11,12.6,11.4,13,12,13z"/>
		</g>
	</g>
	<g>
		<g>
			<path fill-rule="evenodd" clip-rule="evenodd" fill="#C8C8C8" d="M45.7,2c-1.5-0.4-2,0.7-1.3,1.6C47.7,5,50,8.2,50,12
				c0,5-4,9-9,9c-5,0-9-4-9-9c0-3.7,2.3-7,5.6-8.3c0.8-0.9,0.2-2-1.1-1.7C32.6,3.7,30,7.6,30,12c0,6.1,4.9,11,11,11
				c6.1,0,11-4.9,11-11C52,7.6,49.4,3.8,45.7,2z M41,13c0.6,0,1-0.4,1-1V1c0-0.6-0.4-1-1-1c-0.6,0-1,0.4-1,1v11
				C40,12.6,40.4,13,41,13z"/>
		</g>
	</g>
	<g>
		<g>
			<path fill-rule="evenodd" clip-rule="evenodd" fill="#39A6E6" d="M74.7,2c-1.5-0.4-2,0.7-1.3,1.6C76.7,5,79,8.2,79,12
				c0,5-4,9-9,9c-5,0-9-4-9-9c0-3.7,2.3-7,5.6-8.3c0.8-0.9,0.2-2-1.1-1.7C61.6,3.7,59,7.6,59,12c0,6.1,4.9,11,11,11
				c6.1,0,11-4.9,11-11C81,7.6,78.4,3.8,74.7,2z M70,13c0.6,0,1-0.4,1-1V1c0-0.6-0.4-1-1-1c-0.6,0-1,0.4-1,1v11
				C69,12.6,69.4,13,70,13z"/>
		</g>
	</g>
	<g>
		<g>
			<path fill-rule="evenodd" clip-rule="evenodd" fill="#FFFFFF" d="M103.7,2c-1.5-0.4-2,0.7-1.3,1.6C105.7,5,108,8.2,108,12
				c0,5-4,9-9,9c-5,0-9-4-9-9c0-3.7,2.3-7,5.6-8.3c0.8-0.9,0.2-2-1.1-1.7C90.6,3.7,88,7.6,88,12c0,6.1,4.9,11,11,11
				c6.1,0,11-4.9,11-11C110,7.6,107.4,3.8,103.7,2z M99,13c0.6,0,1-0.4,1-1V1c0-0.6-0.4-1-1-1c-0.6,0-1,0.4-1,1v11
				C98,12.6,98.4,13,99,13z"/>
		</g>
	</g>
	<g>
		<g>
			<path fill-rule="evenodd" clip-rule="evenodd" fill="#646464" d="M132.7,2c-1.5-0.4-2,0.7-1.3,1.6C134.7,5,137,8.2,137,12
				c0,5-4,9-9,9c-5,0-9-4-9-9c0-3.7,2.3-7,5.6-8.3c0.8-0.9,0.2-2-1.1-1.7c-3.8,1.7-6.4,5.6-6.4,10c0,6.1,4.9,11,11,11
				c6.1,0,11-4.9,11-11C139,7.6,136.4,3.8,132.7,2z M128,13c0.6,0,1-0.4,1-1V1c0-0.6-0.4-1-1-1c-0.6,0-1,0.4-1,1v11
				C127,12.6,127.4,13,128,13z"/>
		</g>
	</g>
</g>
<g id="Search">
</g>
<g id="Information">
</g>
<g id="Help">
</g>
<g id="Settings">
</g>
<g id="User_Setting">
</g>
<g id="User">
</g>
<g id="Guides" display="none" opacity="0.2">
	<rect display="inline" fill-rule="evenodd" clip-rule="evenodd" fill="#0089D9" width="24" height="24"/>
	<rect x="29" display="inline" fill-rule="evenodd" clip-rule="evenodd" fill="#0089D9" width="24" height="24"/>
	<rect x="58" display="inline" fill-rule="evenodd" clip-rule="evenodd" fill="#0089D9" width="24" height="24"/>
	<rect x="87" display="inline" fill-rule="evenodd" clip-rule="evenodd" fill="#0089D9" width="24" height="24"/>
	<rect x="116" display="inline" fill-rule="evenodd" clip-rule="evenodd" fill="#0089D9" width="24" height="24"/>
</g>
</svg>
